G04 #@! TF.GenerationSoftware,KiCad,Pcbnew,9.0.0*
G04 #@! TF.CreationDate,2025-04-05T17:14:40-04:00*
G04 #@! TF.ProjectId,GeoSence_KiCad_singal_module,47656f53-656e-4636-955f-4b694361645f,rev?*
G04 #@! TF.SameCoordinates,Original*
G04 #@! TF.FileFunction,Legend,Bot*
G04 #@! TF.FilePolarity,Positive*
%FSLAX46Y46*%
G04 Gerber Fmt 4.6, Leading zero omitted, Abs format (unit mm)*
G04 Created by KiCad (PCBNEW 9.0.0) date 2025-04-05 17:14:40*
%MOMM*%
%LPD*%
G01*
G04 APERTURE LIST*
G04 Aperture macros list*
%AMRoundRect*
0 Rectangle with rounded corners*
0 $1 Rounding radius*
0 $2 $3 $4 $5 $6 $7 $8 $9 X,Y pos of 4 corners*
0 Add a 4 corners polygon primitive as box body*
4,1,4,$2,$3,$4,$5,$6,$7,$8,$9,$2,$3,0*
0 Add four circle primitives for the rounded corners*
1,1,$1+$1,$2,$3*
1,1,$1+$1,$4,$5*
1,1,$1+$1,$6,$7*
1,1,$1+$1,$8,$9*
0 Add four rect primitives between the rounded corners*
20,1,$1+$1,$2,$3,$4,$5,0*
20,1,$1+$1,$4,$5,$6,$7,0*
20,1,$1+$1,$6,$7,$8,$9,0*
20,1,$1+$1,$8,$9,$2,$3,0*%
G04 Aperture macros list end*
%ADD10C,0.100000*%
%ADD11C,0.150000*%
%ADD12C,0.120000*%
%ADD13C,1.400000*%
%ADD14O,1.400000X1.400000*%
%ADD15C,3.600000*%
%ADD16C,5.600000*%
%ADD17R,1.700000X1.700000*%
%ADD18O,1.700000X1.700000*%
%ADD19R,1.600000X1.600000*%
%ADD20O,1.600000X1.600000*%
%ADD21R,1.050000X1.500000*%
%ADD22O,1.050000X1.500000*%
%ADD23RoundRect,0.250000X0.250000X0.475000X-0.250000X0.475000X-0.250000X-0.475000X0.250000X-0.475000X0*%
G04 APERTURE END LIST*
D10*
X82500000Y-53250000D02*
X82500000Y-48250000D01*
X114000000Y-41500000D02*
X114000000Y-42000000D01*
X82500000Y-48250000D02*
X80500000Y-48250000D01*
X114000000Y-41000000D02*
X114500000Y-41500000D01*
X114500000Y-41500000D02*
X114000000Y-42000000D01*
X82500000Y-53250000D02*
X82500000Y-58500000D01*
X114000000Y-41500000D02*
X114000000Y-41000000D01*
X80500000Y-58500000D02*
X82500000Y-58500000D01*
X113500000Y-41500000D02*
X114000000Y-41500000D01*
X80500000Y-53250000D02*
X82500000Y-53250000D01*
X125505639Y-56372419D02*
X125315163Y-56372419D01*
X125315163Y-56372419D02*
X125219925Y-56420038D01*
X125219925Y-56420038D02*
X125124687Y-56515276D01*
X125124687Y-56515276D02*
X125077068Y-56705752D01*
X125077068Y-56705752D02*
X125077068Y-57039085D01*
X125077068Y-57039085D02*
X125124687Y-57229561D01*
X125124687Y-57229561D02*
X125219925Y-57324800D01*
X125219925Y-57324800D02*
X125315163Y-57372419D01*
X125315163Y-57372419D02*
X125505639Y-57372419D01*
X125505639Y-57372419D02*
X125600877Y-57324800D01*
X125600877Y-57324800D02*
X125696115Y-57229561D01*
X125696115Y-57229561D02*
X125743734Y-57039085D01*
X125743734Y-57039085D02*
X125743734Y-56705752D01*
X125743734Y-56705752D02*
X125696115Y-56515276D01*
X125696115Y-56515276D02*
X125600877Y-56420038D01*
X125600877Y-56420038D02*
X125505639Y-56372419D01*
X124219925Y-56705752D02*
X124219925Y-57372419D01*
X124648496Y-56705752D02*
X124648496Y-57229561D01*
X124648496Y-57229561D02*
X124600877Y-57324800D01*
X124600877Y-57324800D02*
X124505639Y-57372419D01*
X124505639Y-57372419D02*
X124362782Y-57372419D01*
X124362782Y-57372419D02*
X124267544Y-57324800D01*
X124267544Y-57324800D02*
X124219925Y-57277180D01*
X123886591Y-56705752D02*
X123505639Y-56705752D01*
X123743734Y-56372419D02*
X123743734Y-57229561D01*
X123743734Y-57229561D02*
X123696115Y-57324800D01*
X123696115Y-57324800D02*
X123600877Y-57372419D01*
X123600877Y-57372419D02*
X123505639Y-57372419D01*
X123172305Y-56705752D02*
X123172305Y-57705752D01*
X123172305Y-56753371D02*
X123077067Y-56705752D01*
X123077067Y-56705752D02*
X122886591Y-56705752D01*
X122886591Y-56705752D02*
X122791353Y-56753371D01*
X122791353Y-56753371D02*
X122743734Y-56800990D01*
X122743734Y-56800990D02*
X122696115Y-56896228D01*
X122696115Y-56896228D02*
X122696115Y-57181942D01*
X122696115Y-57181942D02*
X122743734Y-57277180D01*
X122743734Y-57277180D02*
X122791353Y-57324800D01*
X122791353Y-57324800D02*
X122886591Y-57372419D01*
X122886591Y-57372419D02*
X123077067Y-57372419D01*
X123077067Y-57372419D02*
X123172305Y-57324800D01*
X121838972Y-56705752D02*
X121838972Y-57372419D01*
X122267543Y-56705752D02*
X122267543Y-57229561D01*
X122267543Y-57229561D02*
X122219924Y-57324800D01*
X122219924Y-57324800D02*
X122124686Y-57372419D01*
X122124686Y-57372419D02*
X121981829Y-57372419D01*
X121981829Y-57372419D02*
X121886591Y-57324800D01*
X121886591Y-57324800D02*
X121838972Y-57277180D01*
X121505638Y-56705752D02*
X121124686Y-56705752D01*
X121362781Y-56372419D02*
X121362781Y-57229561D01*
X121362781Y-57229561D02*
X121315162Y-57324800D01*
X121315162Y-57324800D02*
X121219924Y-57372419D01*
X121219924Y-57372419D02*
X121124686Y-57372419D01*
X110838972Y-66372419D02*
X110267544Y-66372419D01*
X110553258Y-67372419D02*
X110553258Y-66372419D01*
X109553258Y-67324800D02*
X109648496Y-67372419D01*
X109648496Y-67372419D02*
X109838972Y-67372419D01*
X109838972Y-67372419D02*
X109934210Y-67324800D01*
X109934210Y-67324800D02*
X109981829Y-67229561D01*
X109981829Y-67229561D02*
X109981829Y-66848609D01*
X109981829Y-66848609D02*
X109934210Y-66753371D01*
X109934210Y-66753371D02*
X109838972Y-66705752D01*
X109838972Y-66705752D02*
X109648496Y-66705752D01*
X109648496Y-66705752D02*
X109553258Y-66753371D01*
X109553258Y-66753371D02*
X109505639Y-66848609D01*
X109505639Y-66848609D02*
X109505639Y-66943847D01*
X109505639Y-66943847D02*
X109981829Y-67039085D01*
X109124686Y-67324800D02*
X109029448Y-67372419D01*
X109029448Y-67372419D02*
X108838972Y-67372419D01*
X108838972Y-67372419D02*
X108743734Y-67324800D01*
X108743734Y-67324800D02*
X108696115Y-67229561D01*
X108696115Y-67229561D02*
X108696115Y-67181942D01*
X108696115Y-67181942D02*
X108743734Y-67086704D01*
X108743734Y-67086704D02*
X108838972Y-67039085D01*
X108838972Y-67039085D02*
X108981829Y-67039085D01*
X108981829Y-67039085D02*
X109077067Y-66991466D01*
X109077067Y-66991466D02*
X109124686Y-66896228D01*
X109124686Y-66896228D02*
X109124686Y-66848609D01*
X109124686Y-66848609D02*
X109077067Y-66753371D01*
X109077067Y-66753371D02*
X108981829Y-66705752D01*
X108981829Y-66705752D02*
X108838972Y-66705752D01*
X108838972Y-66705752D02*
X108743734Y-66753371D01*
X108410400Y-66705752D02*
X108029448Y-66705752D01*
X108267543Y-66372419D02*
X108267543Y-67229561D01*
X108267543Y-67229561D02*
X108219924Y-67324800D01*
X108219924Y-67324800D02*
X108124686Y-67372419D01*
X108124686Y-67372419D02*
X108029448Y-67372419D01*
X107696114Y-67372419D02*
X107696114Y-66705752D01*
X107696114Y-66372419D02*
X107743733Y-66420038D01*
X107743733Y-66420038D02*
X107696114Y-66467657D01*
X107696114Y-66467657D02*
X107648495Y-66420038D01*
X107648495Y-66420038D02*
X107696114Y-66372419D01*
X107696114Y-66372419D02*
X107696114Y-66467657D01*
X107219924Y-66705752D02*
X107219924Y-67372419D01*
X107219924Y-66800990D02*
X107172305Y-66753371D01*
X107172305Y-66753371D02*
X107077067Y-66705752D01*
X107077067Y-66705752D02*
X106934210Y-66705752D01*
X106934210Y-66705752D02*
X106838972Y-66753371D01*
X106838972Y-66753371D02*
X106791353Y-66848609D01*
X106791353Y-66848609D02*
X106791353Y-67372419D01*
X105886591Y-66705752D02*
X105886591Y-67515276D01*
X105886591Y-67515276D02*
X105934210Y-67610514D01*
X105934210Y-67610514D02*
X105981829Y-67658133D01*
X105981829Y-67658133D02*
X106077067Y-67705752D01*
X106077067Y-67705752D02*
X106219924Y-67705752D01*
X106219924Y-67705752D02*
X106315162Y-67658133D01*
X105886591Y-67324800D02*
X105981829Y-67372419D01*
X105981829Y-67372419D02*
X106172305Y-67372419D01*
X106172305Y-67372419D02*
X106267543Y-67324800D01*
X106267543Y-67324800D02*
X106315162Y-67277180D01*
X106315162Y-67277180D02*
X106362781Y-67181942D01*
X106362781Y-67181942D02*
X106362781Y-66896228D01*
X106362781Y-66896228D02*
X106315162Y-66800990D01*
X106315162Y-66800990D02*
X106267543Y-66753371D01*
X106267543Y-66753371D02*
X106172305Y-66705752D01*
X106172305Y-66705752D02*
X105981829Y-66705752D01*
X105981829Y-66705752D02*
X105886591Y-66753371D01*
X104219924Y-67372419D02*
X104219924Y-66848609D01*
X104219924Y-66848609D02*
X104267543Y-66753371D01*
X104267543Y-66753371D02*
X104362781Y-66705752D01*
X104362781Y-66705752D02*
X104553257Y-66705752D01*
X104553257Y-66705752D02*
X104648495Y-66753371D01*
X104219924Y-67324800D02*
X104315162Y-67372419D01*
X104315162Y-67372419D02*
X104553257Y-67372419D01*
X104553257Y-67372419D02*
X104648495Y-67324800D01*
X104648495Y-67324800D02*
X104696114Y-67229561D01*
X104696114Y-67229561D02*
X104696114Y-67134323D01*
X104696114Y-67134323D02*
X104648495Y-67039085D01*
X104648495Y-67039085D02*
X104553257Y-66991466D01*
X104553257Y-66991466D02*
X104315162Y-66991466D01*
X104315162Y-66991466D02*
X104219924Y-66943847D01*
X103743733Y-66705752D02*
X103743733Y-67372419D01*
X103743733Y-66800990D02*
X103696114Y-66753371D01*
X103696114Y-66753371D02*
X103600876Y-66705752D01*
X103600876Y-66705752D02*
X103458019Y-66705752D01*
X103458019Y-66705752D02*
X103362781Y-66753371D01*
X103362781Y-66753371D02*
X103315162Y-66848609D01*
X103315162Y-66848609D02*
X103315162Y-67372419D01*
X102410400Y-67372419D02*
X102410400Y-66372419D01*
X102410400Y-67324800D02*
X102505638Y-67372419D01*
X102505638Y-67372419D02*
X102696114Y-67372419D01*
X102696114Y-67372419D02*
X102791352Y-67324800D01*
X102791352Y-67324800D02*
X102838971Y-67277180D01*
X102838971Y-67277180D02*
X102886590Y-67181942D01*
X102886590Y-67181942D02*
X102886590Y-66896228D01*
X102886590Y-66896228D02*
X102838971Y-66800990D01*
X102838971Y-66800990D02*
X102791352Y-66753371D01*
X102791352Y-66753371D02*
X102696114Y-66705752D01*
X102696114Y-66705752D02*
X102505638Y-66705752D01*
X102505638Y-66705752D02*
X102410400Y-66753371D01*
X101267542Y-66705752D02*
X101029447Y-67372419D01*
X101029447Y-67372419D02*
X100791352Y-66705752D01*
X99981828Y-67372419D02*
X99981828Y-66848609D01*
X99981828Y-66848609D02*
X100029447Y-66753371D01*
X100029447Y-66753371D02*
X100124685Y-66705752D01*
X100124685Y-66705752D02*
X100315161Y-66705752D01*
X100315161Y-66705752D02*
X100410399Y-66753371D01*
X99981828Y-67324800D02*
X100077066Y-67372419D01*
X100077066Y-67372419D02*
X100315161Y-67372419D01*
X100315161Y-67372419D02*
X100410399Y-67324800D01*
X100410399Y-67324800D02*
X100458018Y-67229561D01*
X100458018Y-67229561D02*
X100458018Y-67134323D01*
X100458018Y-67134323D02*
X100410399Y-67039085D01*
X100410399Y-67039085D02*
X100315161Y-66991466D01*
X100315161Y-66991466D02*
X100077066Y-66991466D01*
X100077066Y-66991466D02*
X99981828Y-66943847D01*
X99362780Y-67372419D02*
X99458018Y-67324800D01*
X99458018Y-67324800D02*
X99505637Y-67229561D01*
X99505637Y-67229561D02*
X99505637Y-66372419D01*
X98981827Y-67372419D02*
X98981827Y-66705752D01*
X98981827Y-66372419D02*
X99029446Y-66420038D01*
X99029446Y-66420038D02*
X98981827Y-66467657D01*
X98981827Y-66467657D02*
X98934208Y-66420038D01*
X98934208Y-66420038D02*
X98981827Y-66372419D01*
X98981827Y-66372419D02*
X98981827Y-66467657D01*
X98077066Y-67372419D02*
X98077066Y-66372419D01*
X98077066Y-67324800D02*
X98172304Y-67372419D01*
X98172304Y-67372419D02*
X98362780Y-67372419D01*
X98362780Y-67372419D02*
X98458018Y-67324800D01*
X98458018Y-67324800D02*
X98505637Y-67277180D01*
X98505637Y-67277180D02*
X98553256Y-67181942D01*
X98553256Y-67181942D02*
X98553256Y-66896228D01*
X98553256Y-66896228D02*
X98505637Y-66800990D01*
X98505637Y-66800990D02*
X98458018Y-66753371D01*
X98458018Y-66753371D02*
X98362780Y-66705752D01*
X98362780Y-66705752D02*
X98172304Y-66705752D01*
X98172304Y-66705752D02*
X98077066Y-66753371D01*
X97172304Y-67372419D02*
X97172304Y-66848609D01*
X97172304Y-66848609D02*
X97219923Y-66753371D01*
X97219923Y-66753371D02*
X97315161Y-66705752D01*
X97315161Y-66705752D02*
X97505637Y-66705752D01*
X97505637Y-66705752D02*
X97600875Y-66753371D01*
X97172304Y-67324800D02*
X97267542Y-67372419D01*
X97267542Y-67372419D02*
X97505637Y-67372419D01*
X97505637Y-67372419D02*
X97600875Y-67324800D01*
X97600875Y-67324800D02*
X97648494Y-67229561D01*
X97648494Y-67229561D02*
X97648494Y-67134323D01*
X97648494Y-67134323D02*
X97600875Y-67039085D01*
X97600875Y-67039085D02*
X97505637Y-66991466D01*
X97505637Y-66991466D02*
X97267542Y-66991466D01*
X97267542Y-66991466D02*
X97172304Y-66943847D01*
X96838970Y-66705752D02*
X96458018Y-66705752D01*
X96696113Y-66372419D02*
X96696113Y-67229561D01*
X96696113Y-67229561D02*
X96648494Y-67324800D01*
X96648494Y-67324800D02*
X96553256Y-67372419D01*
X96553256Y-67372419D02*
X96458018Y-67372419D01*
X96124684Y-67372419D02*
X96124684Y-66705752D01*
X96124684Y-66372419D02*
X96172303Y-66420038D01*
X96172303Y-66420038D02*
X96124684Y-66467657D01*
X96124684Y-66467657D02*
X96077065Y-66420038D01*
X96077065Y-66420038D02*
X96124684Y-66372419D01*
X96124684Y-66372419D02*
X96124684Y-66467657D01*
X95505637Y-67372419D02*
X95600875Y-67324800D01*
X95600875Y-67324800D02*
X95648494Y-67277180D01*
X95648494Y-67277180D02*
X95696113Y-67181942D01*
X95696113Y-67181942D02*
X95696113Y-66896228D01*
X95696113Y-66896228D02*
X95648494Y-66800990D01*
X95648494Y-66800990D02*
X95600875Y-66753371D01*
X95600875Y-66753371D02*
X95505637Y-66705752D01*
X95505637Y-66705752D02*
X95362780Y-66705752D01*
X95362780Y-66705752D02*
X95267542Y-66753371D01*
X95267542Y-66753371D02*
X95219923Y-66800990D01*
X95219923Y-66800990D02*
X95172304Y-66896228D01*
X95172304Y-66896228D02*
X95172304Y-67181942D01*
X95172304Y-67181942D02*
X95219923Y-67277180D01*
X95219923Y-67277180D02*
X95267542Y-67324800D01*
X95267542Y-67324800D02*
X95362780Y-67372419D01*
X95362780Y-67372419D02*
X95505637Y-67372419D01*
X94743732Y-66705752D02*
X94743732Y-67372419D01*
X94743732Y-66800990D02*
X94696113Y-66753371D01*
X94696113Y-66753371D02*
X94600875Y-66705752D01*
X94600875Y-66705752D02*
X94458018Y-66705752D01*
X94458018Y-66705752D02*
X94362780Y-66753371D01*
X94362780Y-66753371D02*
X94315161Y-66848609D01*
X94315161Y-66848609D02*
X94315161Y-67372419D01*
X93077065Y-67372419D02*
X93077065Y-66372419D01*
X93077065Y-66753371D02*
X92981827Y-66705752D01*
X92981827Y-66705752D02*
X92791351Y-66705752D01*
X92791351Y-66705752D02*
X92696113Y-66753371D01*
X92696113Y-66753371D02*
X92648494Y-66800990D01*
X92648494Y-66800990D02*
X92600875Y-66896228D01*
X92600875Y-66896228D02*
X92600875Y-67181942D01*
X92600875Y-67181942D02*
X92648494Y-67277180D01*
X92648494Y-67277180D02*
X92696113Y-67324800D01*
X92696113Y-67324800D02*
X92791351Y-67372419D01*
X92791351Y-67372419D02*
X92981827Y-67372419D01*
X92981827Y-67372419D02*
X93077065Y-67324800D01*
X92029446Y-67372419D02*
X92124684Y-67324800D01*
X92124684Y-67324800D02*
X92172303Y-67277180D01*
X92172303Y-67277180D02*
X92219922Y-67181942D01*
X92219922Y-67181942D02*
X92219922Y-66896228D01*
X92219922Y-66896228D02*
X92172303Y-66800990D01*
X92172303Y-66800990D02*
X92124684Y-66753371D01*
X92124684Y-66753371D02*
X92029446Y-66705752D01*
X92029446Y-66705752D02*
X91886589Y-66705752D01*
X91886589Y-66705752D02*
X91791351Y-66753371D01*
X91791351Y-66753371D02*
X91743732Y-66800990D01*
X91743732Y-66800990D02*
X91696113Y-66896228D01*
X91696113Y-66896228D02*
X91696113Y-67181942D01*
X91696113Y-67181942D02*
X91743732Y-67277180D01*
X91743732Y-67277180D02*
X91791351Y-67324800D01*
X91791351Y-67324800D02*
X91886589Y-67372419D01*
X91886589Y-67372419D02*
X92029446Y-67372419D01*
X90838970Y-67372419D02*
X90838970Y-66848609D01*
X90838970Y-66848609D02*
X90886589Y-66753371D01*
X90886589Y-66753371D02*
X90981827Y-66705752D01*
X90981827Y-66705752D02*
X91172303Y-66705752D01*
X91172303Y-66705752D02*
X91267541Y-66753371D01*
X90838970Y-67324800D02*
X90934208Y-67372419D01*
X90934208Y-67372419D02*
X91172303Y-67372419D01*
X91172303Y-67372419D02*
X91267541Y-67324800D01*
X91267541Y-67324800D02*
X91315160Y-67229561D01*
X91315160Y-67229561D02*
X91315160Y-67134323D01*
X91315160Y-67134323D02*
X91267541Y-67039085D01*
X91267541Y-67039085D02*
X91172303Y-66991466D01*
X91172303Y-66991466D02*
X90934208Y-66991466D01*
X90934208Y-66991466D02*
X90838970Y-66943847D01*
X90362779Y-67372419D02*
X90362779Y-66705752D01*
X90362779Y-66896228D02*
X90315160Y-66800990D01*
X90315160Y-66800990D02*
X90267541Y-66753371D01*
X90267541Y-66753371D02*
X90172303Y-66705752D01*
X90172303Y-66705752D02*
X90077065Y-66705752D01*
X89315160Y-67372419D02*
X89315160Y-66372419D01*
X89315160Y-67324800D02*
X89410398Y-67372419D01*
X89410398Y-67372419D02*
X89600874Y-67372419D01*
X89600874Y-67372419D02*
X89696112Y-67324800D01*
X89696112Y-67324800D02*
X89743731Y-67277180D01*
X89743731Y-67277180D02*
X89791350Y-67181942D01*
X89791350Y-67181942D02*
X89791350Y-66896228D01*
X89791350Y-66896228D02*
X89743731Y-66800990D01*
X89743731Y-66800990D02*
X89696112Y-66753371D01*
X89696112Y-66753371D02*
X89600874Y-66705752D01*
X89600874Y-66705752D02*
X89410398Y-66705752D01*
X89410398Y-66705752D02*
X89315160Y-66753371D01*
X107591115Y-41656466D02*
X106829211Y-41656466D01*
X107210163Y-42037419D02*
X107210163Y-41275514D01*
X105876830Y-41037419D02*
X106353020Y-41037419D01*
X106353020Y-41037419D02*
X106400639Y-41513609D01*
X106400639Y-41513609D02*
X106353020Y-41465990D01*
X106353020Y-41465990D02*
X106257782Y-41418371D01*
X106257782Y-41418371D02*
X106019687Y-41418371D01*
X106019687Y-41418371D02*
X105924449Y-41465990D01*
X105924449Y-41465990D02*
X105876830Y-41513609D01*
X105876830Y-41513609D02*
X105829211Y-41608847D01*
X105829211Y-41608847D02*
X105829211Y-41846942D01*
X105829211Y-41846942D02*
X105876830Y-41942180D01*
X105876830Y-41942180D02*
X105924449Y-41989800D01*
X105924449Y-41989800D02*
X106019687Y-42037419D01*
X106019687Y-42037419D02*
X106257782Y-42037419D01*
X106257782Y-42037419D02*
X106353020Y-41989800D01*
X106353020Y-41989800D02*
X106400639Y-41942180D01*
X82079961Y-56672306D02*
X82127580Y-56767544D01*
X82127580Y-56767544D02*
X82127580Y-56910401D01*
X82127580Y-56910401D02*
X82079961Y-57053258D01*
X82079961Y-57053258D02*
X81984723Y-57148496D01*
X81984723Y-57148496D02*
X81889485Y-57196115D01*
X81889485Y-57196115D02*
X81699009Y-57243734D01*
X81699009Y-57243734D02*
X81556152Y-57243734D01*
X81556152Y-57243734D02*
X81365676Y-57196115D01*
X81365676Y-57196115D02*
X81270438Y-57148496D01*
X81270438Y-57148496D02*
X81175200Y-57053258D01*
X81175200Y-57053258D02*
X81127580Y-56910401D01*
X81127580Y-56910401D02*
X81127580Y-56815163D01*
X81127580Y-56815163D02*
X81175200Y-56672306D01*
X81175200Y-56672306D02*
X81222819Y-56624687D01*
X81222819Y-56624687D02*
X81556152Y-56624687D01*
X81556152Y-56624687D02*
X81556152Y-56815163D01*
X81127580Y-56196115D02*
X82127580Y-56196115D01*
X82127580Y-56196115D02*
X81127580Y-55624687D01*
X81127580Y-55624687D02*
X82127580Y-55624687D01*
X81127580Y-55148496D02*
X82127580Y-55148496D01*
X82127580Y-55148496D02*
X82127580Y-54910401D01*
X82127580Y-54910401D02*
X82079961Y-54767544D01*
X82079961Y-54767544D02*
X81984723Y-54672306D01*
X81984723Y-54672306D02*
X81889485Y-54624687D01*
X81889485Y-54624687D02*
X81699009Y-54577068D01*
X81699009Y-54577068D02*
X81556152Y-54577068D01*
X81556152Y-54577068D02*
X81365676Y-54624687D01*
X81365676Y-54624687D02*
X81270438Y-54672306D01*
X81270438Y-54672306D02*
X81175200Y-54767544D01*
X81175200Y-54767544D02*
X81127580Y-54910401D01*
X81127580Y-54910401D02*
X81127580Y-55148496D01*
X81127580Y-52446115D02*
X82127580Y-52446115D01*
X81794247Y-51969925D02*
X81127580Y-51969925D01*
X81699009Y-51969925D02*
X81746628Y-51922306D01*
X81746628Y-51922306D02*
X81794247Y-51827068D01*
X81794247Y-51827068D02*
X81794247Y-51684211D01*
X81794247Y-51684211D02*
X81746628Y-51588973D01*
X81746628Y-51588973D02*
X81651390Y-51541354D01*
X81651390Y-51541354D02*
X81127580Y-51541354D01*
X81794247Y-51065163D02*
X80794247Y-51065163D01*
X81746628Y-51065163D02*
X81794247Y-50969925D01*
X81794247Y-50969925D02*
X81794247Y-50779449D01*
X81794247Y-50779449D02*
X81746628Y-50684211D01*
X81746628Y-50684211D02*
X81699009Y-50636592D01*
X81699009Y-50636592D02*
X81603771Y-50588973D01*
X81603771Y-50588973D02*
X81318057Y-50588973D01*
X81318057Y-50588973D02*
X81222819Y-50636592D01*
X81222819Y-50636592D02*
X81175200Y-50684211D01*
X81175200Y-50684211D02*
X81127580Y-50779449D01*
X81127580Y-50779449D02*
X81127580Y-50969925D01*
X81127580Y-50969925D02*
X81175200Y-51065163D01*
X81794247Y-49731830D02*
X81127580Y-49731830D01*
X81794247Y-50160401D02*
X81270438Y-50160401D01*
X81270438Y-50160401D02*
X81175200Y-50112782D01*
X81175200Y-50112782D02*
X81127580Y-50017544D01*
X81127580Y-50017544D02*
X81127580Y-49874687D01*
X81127580Y-49874687D02*
X81175200Y-49779449D01*
X81175200Y-49779449D02*
X81222819Y-49731830D01*
X81794247Y-49398496D02*
X81794247Y-49017544D01*
X82127580Y-49255639D02*
X81270438Y-49255639D01*
X81270438Y-49255639D02*
X81175200Y-49208020D01*
X81175200Y-49208020D02*
X81127580Y-49112782D01*
X81127580Y-49112782D02*
X81127580Y-49017544D01*
D11*
X110290442Y-52273081D02*
X110338061Y-52320701D01*
X110338061Y-52320701D02*
X110480918Y-52368320D01*
X110480918Y-52368320D02*
X110576156Y-52368320D01*
X110576156Y-52368320D02*
X110719013Y-52320701D01*
X110719013Y-52320701D02*
X110814251Y-52225462D01*
X110814251Y-52225462D02*
X110861870Y-52130224D01*
X110861870Y-52130224D02*
X110909489Y-51939748D01*
X110909489Y-51939748D02*
X110909489Y-51796891D01*
X110909489Y-51796891D02*
X110861870Y-51606415D01*
X110861870Y-51606415D02*
X110814251Y-51511177D01*
X110814251Y-51511177D02*
X110719013Y-51415939D01*
X110719013Y-51415939D02*
X110576156Y-51368320D01*
X110576156Y-51368320D02*
X110480918Y-51368320D01*
X110480918Y-51368320D02*
X110338061Y-51415939D01*
X110338061Y-51415939D02*
X110290442Y-51463558D01*
X109338061Y-52368320D02*
X109909489Y-52368320D01*
X109623775Y-52368320D02*
X109623775Y-51368320D01*
X109623775Y-51368320D02*
X109719013Y-51511177D01*
X109719013Y-51511177D02*
X109814251Y-51606415D01*
X109814251Y-51606415D02*
X109909489Y-51654034D01*
D12*
X109862524Y-52858501D02*
X110385028Y-52858501D01*
X109862524Y-54328501D02*
X110385028Y-54328501D01*
%LPC*%
D13*
X111500000Y-46140000D03*
D14*
X116580000Y-46140000D03*
D15*
X80000000Y-65500000D03*
D16*
X80000000Y-65500000D03*
D15*
X80000000Y-42500000D03*
D16*
X80000000Y-42500000D03*
D17*
X84500000Y-52225000D03*
D18*
X84500000Y-54765000D03*
D13*
X103270000Y-61140000D03*
D14*
X108350000Y-61140000D03*
D19*
X90770000Y-43140000D03*
D20*
X98390000Y-43140000D03*
D21*
X94000000Y-48000000D03*
D22*
X95270000Y-48000000D03*
X96540000Y-48000000D03*
D15*
X123000000Y-65500000D03*
D16*
X123000000Y-65500000D03*
D13*
X103270000Y-51140000D03*
D14*
X103270000Y-56220000D03*
D17*
X123500000Y-52225000D03*
D18*
X123500000Y-54765000D03*
D13*
X103270000Y-46140000D03*
D14*
X108350000Y-46140000D03*
D13*
X90770000Y-56140000D03*
D14*
X90770000Y-61220000D03*
D17*
X109225000Y-41500000D03*
D18*
X111765000Y-41500000D03*
D13*
X90770000Y-51180000D03*
D14*
X90770000Y-46100000D03*
D21*
X96540000Y-59280000D03*
D22*
X95270000Y-59280000D03*
X94000000Y-59280000D03*
D13*
X97540000Y-53701100D03*
D14*
X92460000Y-53701100D03*
D13*
X99770000Y-51220000D03*
D14*
X99770000Y-46140000D03*
D13*
X119000000Y-60040000D03*
D14*
X119000000Y-54960000D03*
D17*
X78770000Y-49700000D03*
D18*
X78770000Y-52240000D03*
X78770000Y-54780000D03*
X78770000Y-57320000D03*
D19*
X98390000Y-64140000D03*
D20*
X90770000Y-64140000D03*
D13*
X111460000Y-61140000D03*
D14*
X116540000Y-61140000D03*
D13*
X99770000Y-56100000D03*
D14*
X99770000Y-61180000D03*
D15*
X123000000Y-42500000D03*
D16*
X123000000Y-42500000D03*
D13*
X119000000Y-47460000D03*
D14*
X119000000Y-52540000D03*
D23*
X111073776Y-53593501D03*
X109173776Y-53593501D03*
%LPD*%
M02*
