G04 #@! TF.GenerationSoftware,KiCad,Pcbnew,9.0.0*
G04 #@! TF.CreationDate,2025-04-05T17:14:40-04:00*
G04 #@! TF.ProjectId,GeoSence_KiCad_singal_module,47656f53-656e-4636-955f-4b694361645f,rev?*
G04 #@! TF.SameCoordinates,Original*
G04 #@! TF.FileFunction,Legend,Top*
G04 #@! TF.FilePolarity,Positive*
%FSLAX46Y46*%
G04 Gerber Fmt 4.6, Leading zero omitted, Abs format (unit mm)*
G04 Created by KiCad (PCBNEW 9.0.0) date 2025-04-05 17:14:40*
%MOMM*%
%LPD*%
G01*
G04 APERTURE LIST*
G04 Aperture macros list*
%AMRoundRect*
0 Rectangle with rounded corners*
0 $1 Rounding radius*
0 $2 $3 $4 $5 $6 $7 $8 $9 X,Y pos of 4 corners*
0 Add a 4 corners polygon primitive as box body*
4,1,4,$2,$3,$4,$5,$6,$7,$8,$9,$2,$3,0*
0 Add four circle primitives for the rounded corners*
1,1,$1+$1,$2,$3*
1,1,$1+$1,$4,$5*
1,1,$1+$1,$6,$7*
1,1,$1+$1,$8,$9*
0 Add four rect primitives between the rounded corners*
20,1,$1+$1,$2,$3,$4,$5,0*
20,1,$1+$1,$4,$5,$6,$7,0*
20,1,$1+$1,$6,$7,$8,$9,0*
20,1,$1+$1,$8,$9,$2,$3,0*%
G04 Aperture macros list end*
%ADD10C,0.100000*%
%ADD11C,0.150000*%
%ADD12C,0.120000*%
%ADD13C,1.400000*%
%ADD14O,1.400000X1.400000*%
%ADD15C,3.600000*%
%ADD16C,5.600000*%
%ADD17R,1.700000X1.700000*%
%ADD18O,1.700000X1.700000*%
%ADD19R,1.600000X1.600000*%
%ADD20O,1.600000X1.600000*%
%ADD21R,1.050000X1.500000*%
%ADD22O,1.050000X1.500000*%
%ADD23RoundRect,0.100000X-0.637500X-0.100000X0.637500X-0.100000X0.637500X0.100000X-0.637500X0.100000X0*%
G04 APERTURE END LIST*
D10*
X82500000Y-53500000D02*
X80500000Y-53500000D01*
X114000000Y-41500000D02*
X114000000Y-42000000D01*
X114000000Y-42000000D02*
X114500000Y-41500000D01*
X82500000Y-53500000D02*
X82500000Y-58500000D01*
X82500000Y-48500000D02*
X82500000Y-53000000D01*
X114500000Y-41500000D02*
X114000000Y-41000000D01*
X113500000Y-41500000D02*
X114000000Y-41500000D01*
X82500000Y-53000000D02*
X82500000Y-53500000D01*
X82500000Y-58500000D02*
X80500000Y-58500000D01*
X80500000Y-48500000D02*
X82500000Y-48500000D01*
X114000000Y-41500000D02*
X114000000Y-41000000D01*
X82079961Y-55327693D02*
X82127580Y-55232455D01*
X82127580Y-55232455D02*
X82127580Y-55089598D01*
X82127580Y-55089598D02*
X82079961Y-54946741D01*
X82079961Y-54946741D02*
X81984723Y-54851503D01*
X81984723Y-54851503D02*
X81889485Y-54803884D01*
X81889485Y-54803884D02*
X81699009Y-54756265D01*
X81699009Y-54756265D02*
X81556152Y-54756265D01*
X81556152Y-54756265D02*
X81365676Y-54803884D01*
X81365676Y-54803884D02*
X81270438Y-54851503D01*
X81270438Y-54851503D02*
X81175200Y-54946741D01*
X81175200Y-54946741D02*
X81127580Y-55089598D01*
X81127580Y-55089598D02*
X81127580Y-55184836D01*
X81127580Y-55184836D02*
X81175200Y-55327693D01*
X81175200Y-55327693D02*
X81222819Y-55375312D01*
X81222819Y-55375312D02*
X81556152Y-55375312D01*
X81556152Y-55375312D02*
X81556152Y-55184836D01*
X81127580Y-55803884D02*
X82127580Y-55803884D01*
X82127580Y-55803884D02*
X81127580Y-56375312D01*
X81127580Y-56375312D02*
X82127580Y-56375312D01*
X81127580Y-56851503D02*
X82127580Y-56851503D01*
X82127580Y-56851503D02*
X82127580Y-57089598D01*
X82127580Y-57089598D02*
X82079961Y-57232455D01*
X82079961Y-57232455D02*
X81984723Y-57327693D01*
X81984723Y-57327693D02*
X81889485Y-57375312D01*
X81889485Y-57375312D02*
X81699009Y-57422931D01*
X81699009Y-57422931D02*
X81556152Y-57422931D01*
X81556152Y-57422931D02*
X81365676Y-57375312D01*
X81365676Y-57375312D02*
X81270438Y-57327693D01*
X81270438Y-57327693D02*
X81175200Y-57232455D01*
X81175200Y-57232455D02*
X81127580Y-57089598D01*
X81127580Y-57089598D02*
X81127580Y-56851503D01*
X121494360Y-56372419D02*
X121684836Y-56372419D01*
X121684836Y-56372419D02*
X121780074Y-56420038D01*
X121780074Y-56420038D02*
X121875312Y-56515276D01*
X121875312Y-56515276D02*
X121922931Y-56705752D01*
X121922931Y-56705752D02*
X121922931Y-57039085D01*
X121922931Y-57039085D02*
X121875312Y-57229561D01*
X121875312Y-57229561D02*
X121780074Y-57324800D01*
X121780074Y-57324800D02*
X121684836Y-57372419D01*
X121684836Y-57372419D02*
X121494360Y-57372419D01*
X121494360Y-57372419D02*
X121399122Y-57324800D01*
X121399122Y-57324800D02*
X121303884Y-57229561D01*
X121303884Y-57229561D02*
X121256265Y-57039085D01*
X121256265Y-57039085D02*
X121256265Y-56705752D01*
X121256265Y-56705752D02*
X121303884Y-56515276D01*
X121303884Y-56515276D02*
X121399122Y-56420038D01*
X121399122Y-56420038D02*
X121494360Y-56372419D01*
X122780074Y-56705752D02*
X122780074Y-57372419D01*
X122351503Y-56705752D02*
X122351503Y-57229561D01*
X122351503Y-57229561D02*
X122399122Y-57324800D01*
X122399122Y-57324800D02*
X122494360Y-57372419D01*
X122494360Y-57372419D02*
X122637217Y-57372419D01*
X122637217Y-57372419D02*
X122732455Y-57324800D01*
X122732455Y-57324800D02*
X122780074Y-57277180D01*
X123113408Y-56705752D02*
X123494360Y-56705752D01*
X123256265Y-56372419D02*
X123256265Y-57229561D01*
X123256265Y-57229561D02*
X123303884Y-57324800D01*
X123303884Y-57324800D02*
X123399122Y-57372419D01*
X123399122Y-57372419D02*
X123494360Y-57372419D01*
X123827694Y-56705752D02*
X123827694Y-57705752D01*
X123827694Y-56753371D02*
X123922932Y-56705752D01*
X123922932Y-56705752D02*
X124113408Y-56705752D01*
X124113408Y-56705752D02*
X124208646Y-56753371D01*
X124208646Y-56753371D02*
X124256265Y-56800990D01*
X124256265Y-56800990D02*
X124303884Y-56896228D01*
X124303884Y-56896228D02*
X124303884Y-57181942D01*
X124303884Y-57181942D02*
X124256265Y-57277180D01*
X124256265Y-57277180D02*
X124208646Y-57324800D01*
X124208646Y-57324800D02*
X124113408Y-57372419D01*
X124113408Y-57372419D02*
X123922932Y-57372419D01*
X123922932Y-57372419D02*
X123827694Y-57324800D01*
X125161027Y-56705752D02*
X125161027Y-57372419D01*
X124732456Y-56705752D02*
X124732456Y-57229561D01*
X124732456Y-57229561D02*
X124780075Y-57324800D01*
X124780075Y-57324800D02*
X124875313Y-57372419D01*
X124875313Y-57372419D02*
X125018170Y-57372419D01*
X125018170Y-57372419D02*
X125113408Y-57324800D01*
X125113408Y-57324800D02*
X125161027Y-57277180D01*
X125494361Y-56705752D02*
X125875313Y-56705752D01*
X125637218Y-56372419D02*
X125637218Y-57229561D01*
X125637218Y-57229561D02*
X125684837Y-57324800D01*
X125684837Y-57324800D02*
X125780075Y-57372419D01*
X125780075Y-57372419D02*
X125875313Y-57372419D01*
X81127580Y-49303884D02*
X82127580Y-49303884D01*
X81794247Y-49780074D02*
X81127580Y-49780074D01*
X81699009Y-49780074D02*
X81746628Y-49827693D01*
X81746628Y-49827693D02*
X81794247Y-49922931D01*
X81794247Y-49922931D02*
X81794247Y-50065788D01*
X81794247Y-50065788D02*
X81746628Y-50161026D01*
X81746628Y-50161026D02*
X81651390Y-50208645D01*
X81651390Y-50208645D02*
X81127580Y-50208645D01*
X81794247Y-50684836D02*
X80794247Y-50684836D01*
X81746628Y-50684836D02*
X81794247Y-50780074D01*
X81794247Y-50780074D02*
X81794247Y-50970550D01*
X81794247Y-50970550D02*
X81746628Y-51065788D01*
X81746628Y-51065788D02*
X81699009Y-51113407D01*
X81699009Y-51113407D02*
X81603771Y-51161026D01*
X81603771Y-51161026D02*
X81318057Y-51161026D01*
X81318057Y-51161026D02*
X81222819Y-51113407D01*
X81222819Y-51113407D02*
X81175200Y-51065788D01*
X81175200Y-51065788D02*
X81127580Y-50970550D01*
X81127580Y-50970550D02*
X81127580Y-50780074D01*
X81127580Y-50780074D02*
X81175200Y-50684836D01*
X81794247Y-52018169D02*
X81127580Y-52018169D01*
X81794247Y-51589598D02*
X81270438Y-51589598D01*
X81270438Y-51589598D02*
X81175200Y-51637217D01*
X81175200Y-51637217D02*
X81127580Y-51732455D01*
X81127580Y-51732455D02*
X81127580Y-51875312D01*
X81127580Y-51875312D02*
X81175200Y-51970550D01*
X81175200Y-51970550D02*
X81222819Y-52018169D01*
X81794247Y-52351503D02*
X81794247Y-52732455D01*
X82127580Y-52494360D02*
X81270438Y-52494360D01*
X81270438Y-52494360D02*
X81175200Y-52541979D01*
X81175200Y-52541979D02*
X81127580Y-52637217D01*
X81127580Y-52637217D02*
X81127580Y-52732455D01*
D11*
X113873333Y-44674819D02*
X113540000Y-44198628D01*
X113301905Y-44674819D02*
X113301905Y-43674819D01*
X113301905Y-43674819D02*
X113682857Y-43674819D01*
X113682857Y-43674819D02*
X113778095Y-43722438D01*
X113778095Y-43722438D02*
X113825714Y-43770057D01*
X113825714Y-43770057D02*
X113873333Y-43865295D01*
X113873333Y-43865295D02*
X113873333Y-44008152D01*
X113873333Y-44008152D02*
X113825714Y-44103390D01*
X113825714Y-44103390D02*
X113778095Y-44151009D01*
X113778095Y-44151009D02*
X113682857Y-44198628D01*
X113682857Y-44198628D02*
X113301905Y-44198628D01*
X114349524Y-44674819D02*
X114540000Y-44674819D01*
X114540000Y-44674819D02*
X114635238Y-44627200D01*
X114635238Y-44627200D02*
X114682857Y-44579580D01*
X114682857Y-44579580D02*
X114778095Y-44436723D01*
X114778095Y-44436723D02*
X114825714Y-44246247D01*
X114825714Y-44246247D02*
X114825714Y-43865295D01*
X114825714Y-43865295D02*
X114778095Y-43770057D01*
X114778095Y-43770057D02*
X114730476Y-43722438D01*
X114730476Y-43722438D02*
X114635238Y-43674819D01*
X114635238Y-43674819D02*
X114444762Y-43674819D01*
X114444762Y-43674819D02*
X114349524Y-43722438D01*
X114349524Y-43722438D02*
X114301905Y-43770057D01*
X114301905Y-43770057D02*
X114254286Y-43865295D01*
X114254286Y-43865295D02*
X114254286Y-44103390D01*
X114254286Y-44103390D02*
X114301905Y-44198628D01*
X114301905Y-44198628D02*
X114349524Y-44246247D01*
X114349524Y-44246247D02*
X114444762Y-44293866D01*
X114444762Y-44293866D02*
X114635238Y-44293866D01*
X114635238Y-44293866D02*
X114730476Y-44246247D01*
X114730476Y-44246247D02*
X114778095Y-44198628D01*
X114778095Y-44198628D02*
X114825714Y-44103390D01*
X84166666Y-48954819D02*
X84166666Y-49669104D01*
X84166666Y-49669104D02*
X84119047Y-49811961D01*
X84119047Y-49811961D02*
X84023809Y-49907200D01*
X84023809Y-49907200D02*
X83880952Y-49954819D01*
X83880952Y-49954819D02*
X83785714Y-49954819D01*
X84595238Y-49050057D02*
X84642857Y-49002438D01*
X84642857Y-49002438D02*
X84738095Y-48954819D01*
X84738095Y-48954819D02*
X84976190Y-48954819D01*
X84976190Y-48954819D02*
X85071428Y-49002438D01*
X85071428Y-49002438D02*
X85119047Y-49050057D01*
X85119047Y-49050057D02*
X85166666Y-49145295D01*
X85166666Y-49145295D02*
X85166666Y-49240533D01*
X85166666Y-49240533D02*
X85119047Y-49383390D01*
X85119047Y-49383390D02*
X84547619Y-49954819D01*
X84547619Y-49954819D02*
X85166666Y-49954819D01*
X105643333Y-63454819D02*
X105310000Y-62978628D01*
X105071905Y-63454819D02*
X105071905Y-62454819D01*
X105071905Y-62454819D02*
X105452857Y-62454819D01*
X105452857Y-62454819D02*
X105548095Y-62502438D01*
X105548095Y-62502438D02*
X105595714Y-62550057D01*
X105595714Y-62550057D02*
X105643333Y-62645295D01*
X105643333Y-62645295D02*
X105643333Y-62788152D01*
X105643333Y-62788152D02*
X105595714Y-62883390D01*
X105595714Y-62883390D02*
X105548095Y-62931009D01*
X105548095Y-62931009D02*
X105452857Y-62978628D01*
X105452857Y-62978628D02*
X105071905Y-62978628D01*
X106214762Y-62883390D02*
X106119524Y-62835771D01*
X106119524Y-62835771D02*
X106071905Y-62788152D01*
X106071905Y-62788152D02*
X106024286Y-62692914D01*
X106024286Y-62692914D02*
X106024286Y-62645295D01*
X106024286Y-62645295D02*
X106071905Y-62550057D01*
X106071905Y-62550057D02*
X106119524Y-62502438D01*
X106119524Y-62502438D02*
X106214762Y-62454819D01*
X106214762Y-62454819D02*
X106405238Y-62454819D01*
X106405238Y-62454819D02*
X106500476Y-62502438D01*
X106500476Y-62502438D02*
X106548095Y-62550057D01*
X106548095Y-62550057D02*
X106595714Y-62645295D01*
X106595714Y-62645295D02*
X106595714Y-62692914D01*
X106595714Y-62692914D02*
X106548095Y-62788152D01*
X106548095Y-62788152D02*
X106500476Y-62835771D01*
X106500476Y-62835771D02*
X106405238Y-62883390D01*
X106405238Y-62883390D02*
X106214762Y-62883390D01*
X106214762Y-62883390D02*
X106119524Y-62931009D01*
X106119524Y-62931009D02*
X106071905Y-62978628D01*
X106071905Y-62978628D02*
X106024286Y-63073866D01*
X106024286Y-63073866D02*
X106024286Y-63264342D01*
X106024286Y-63264342D02*
X106071905Y-63359580D01*
X106071905Y-63359580D02*
X106119524Y-63407200D01*
X106119524Y-63407200D02*
X106214762Y-63454819D01*
X106214762Y-63454819D02*
X106405238Y-63454819D01*
X106405238Y-63454819D02*
X106500476Y-63407200D01*
X106500476Y-63407200D02*
X106548095Y-63359580D01*
X106548095Y-63359580D02*
X106595714Y-63264342D01*
X106595714Y-63264342D02*
X106595714Y-63073866D01*
X106595714Y-63073866D02*
X106548095Y-62978628D01*
X106548095Y-62978628D02*
X106500476Y-62931009D01*
X106500476Y-62931009D02*
X106405238Y-62883390D01*
X93841905Y-41474819D02*
X93841905Y-40474819D01*
X93841905Y-40474819D02*
X94080000Y-40474819D01*
X94080000Y-40474819D02*
X94222857Y-40522438D01*
X94222857Y-40522438D02*
X94318095Y-40617676D01*
X94318095Y-40617676D02*
X94365714Y-40712914D01*
X94365714Y-40712914D02*
X94413333Y-40903390D01*
X94413333Y-40903390D02*
X94413333Y-41046247D01*
X94413333Y-41046247D02*
X94365714Y-41236723D01*
X94365714Y-41236723D02*
X94318095Y-41331961D01*
X94318095Y-41331961D02*
X94222857Y-41427200D01*
X94222857Y-41427200D02*
X94080000Y-41474819D01*
X94080000Y-41474819D02*
X93841905Y-41474819D01*
X94794286Y-40570057D02*
X94841905Y-40522438D01*
X94841905Y-40522438D02*
X94937143Y-40474819D01*
X94937143Y-40474819D02*
X95175238Y-40474819D01*
X95175238Y-40474819D02*
X95270476Y-40522438D01*
X95270476Y-40522438D02*
X95318095Y-40570057D01*
X95318095Y-40570057D02*
X95365714Y-40665295D01*
X95365714Y-40665295D02*
X95365714Y-40760533D01*
X95365714Y-40760533D02*
X95318095Y-40903390D01*
X95318095Y-40903390D02*
X94746667Y-41474819D01*
X94746667Y-41474819D02*
X95365714Y-41474819D01*
X88508095Y-43594819D02*
X88508095Y-42594819D01*
X89079523Y-43594819D02*
X88650952Y-43023390D01*
X89079523Y-42594819D02*
X88508095Y-43166247D01*
X94508095Y-50094819D02*
X94508095Y-50904342D01*
X94508095Y-50904342D02*
X94555714Y-50999580D01*
X94555714Y-50999580D02*
X94603333Y-51047200D01*
X94603333Y-51047200D02*
X94698571Y-51094819D01*
X94698571Y-51094819D02*
X94889047Y-51094819D01*
X94889047Y-51094819D02*
X94984285Y-51047200D01*
X94984285Y-51047200D02*
X95031904Y-50999580D01*
X95031904Y-50999580D02*
X95079523Y-50904342D01*
X95079523Y-50904342D02*
X95079523Y-50094819D01*
X95508095Y-50190057D02*
X95555714Y-50142438D01*
X95555714Y-50142438D02*
X95650952Y-50094819D01*
X95650952Y-50094819D02*
X95889047Y-50094819D01*
X95889047Y-50094819D02*
X95984285Y-50142438D01*
X95984285Y-50142438D02*
X96031904Y-50190057D01*
X96031904Y-50190057D02*
X96079523Y-50285295D01*
X96079523Y-50285295D02*
X96079523Y-50380533D01*
X96079523Y-50380533D02*
X96031904Y-50523390D01*
X96031904Y-50523390D02*
X95460476Y-51094819D01*
X95460476Y-51094819D02*
X96079523Y-51094819D01*
X101103333Y-54094819D02*
X100770000Y-53618628D01*
X100531905Y-54094819D02*
X100531905Y-53094819D01*
X100531905Y-53094819D02*
X100912857Y-53094819D01*
X100912857Y-53094819D02*
X101008095Y-53142438D01*
X101008095Y-53142438D02*
X101055714Y-53190057D01*
X101055714Y-53190057D02*
X101103333Y-53285295D01*
X101103333Y-53285295D02*
X101103333Y-53428152D01*
X101103333Y-53428152D02*
X101055714Y-53523390D01*
X101055714Y-53523390D02*
X101008095Y-53571009D01*
X101008095Y-53571009D02*
X100912857Y-53618628D01*
X100912857Y-53618628D02*
X100531905Y-53618628D01*
X101960476Y-53094819D02*
X101770000Y-53094819D01*
X101770000Y-53094819D02*
X101674762Y-53142438D01*
X101674762Y-53142438D02*
X101627143Y-53190057D01*
X101627143Y-53190057D02*
X101531905Y-53332914D01*
X101531905Y-53332914D02*
X101484286Y-53523390D01*
X101484286Y-53523390D02*
X101484286Y-53904342D01*
X101484286Y-53904342D02*
X101531905Y-53999580D01*
X101531905Y-53999580D02*
X101579524Y-54047200D01*
X101579524Y-54047200D02*
X101674762Y-54094819D01*
X101674762Y-54094819D02*
X101865238Y-54094819D01*
X101865238Y-54094819D02*
X101960476Y-54047200D01*
X101960476Y-54047200D02*
X102008095Y-53999580D01*
X102008095Y-53999580D02*
X102055714Y-53904342D01*
X102055714Y-53904342D02*
X102055714Y-53666247D01*
X102055714Y-53666247D02*
X102008095Y-53571009D01*
X102008095Y-53571009D02*
X101960476Y-53523390D01*
X101960476Y-53523390D02*
X101865238Y-53475771D01*
X101865238Y-53475771D02*
X101674762Y-53475771D01*
X101674762Y-53475771D02*
X101579524Y-53523390D01*
X101579524Y-53523390D02*
X101531905Y-53571009D01*
X101531905Y-53571009D02*
X101484286Y-53666247D01*
X123166666Y-48954819D02*
X123166666Y-49669104D01*
X123166666Y-49669104D02*
X123119047Y-49811961D01*
X123119047Y-49811961D02*
X123023809Y-49907200D01*
X123023809Y-49907200D02*
X122880952Y-49954819D01*
X122880952Y-49954819D02*
X122785714Y-49954819D01*
X124071428Y-49288152D02*
X124071428Y-49954819D01*
X123833333Y-48907200D02*
X123595238Y-49621485D01*
X123595238Y-49621485D02*
X124214285Y-49621485D01*
X105643333Y-44674819D02*
X105310000Y-44198628D01*
X105071905Y-44674819D02*
X105071905Y-43674819D01*
X105071905Y-43674819D02*
X105452857Y-43674819D01*
X105452857Y-43674819D02*
X105548095Y-43722438D01*
X105548095Y-43722438D02*
X105595714Y-43770057D01*
X105595714Y-43770057D02*
X105643333Y-43865295D01*
X105643333Y-43865295D02*
X105643333Y-44008152D01*
X105643333Y-44008152D02*
X105595714Y-44103390D01*
X105595714Y-44103390D02*
X105548095Y-44151009D01*
X105548095Y-44151009D02*
X105452857Y-44198628D01*
X105452857Y-44198628D02*
X105071905Y-44198628D01*
X105976667Y-43674819D02*
X106643333Y-43674819D01*
X106643333Y-43674819D02*
X106214762Y-44674819D01*
X88603333Y-59134819D02*
X88270000Y-58658628D01*
X88031905Y-59134819D02*
X88031905Y-58134819D01*
X88031905Y-58134819D02*
X88412857Y-58134819D01*
X88412857Y-58134819D02*
X88508095Y-58182438D01*
X88508095Y-58182438D02*
X88555714Y-58230057D01*
X88555714Y-58230057D02*
X88603333Y-58325295D01*
X88603333Y-58325295D02*
X88603333Y-58468152D01*
X88603333Y-58468152D02*
X88555714Y-58563390D01*
X88555714Y-58563390D02*
X88508095Y-58611009D01*
X88508095Y-58611009D02*
X88412857Y-58658628D01*
X88412857Y-58658628D02*
X88031905Y-58658628D01*
X89555714Y-59134819D02*
X88984286Y-59134819D01*
X89270000Y-59134819D02*
X89270000Y-58134819D01*
X89270000Y-58134819D02*
X89174762Y-58277676D01*
X89174762Y-58277676D02*
X89079524Y-58372914D01*
X89079524Y-58372914D02*
X88984286Y-58420533D01*
X105666666Y-40954819D02*
X105666666Y-41669104D01*
X105666666Y-41669104D02*
X105619047Y-41811961D01*
X105619047Y-41811961D02*
X105523809Y-41907200D01*
X105523809Y-41907200D02*
X105380952Y-41954819D01*
X105380952Y-41954819D02*
X105285714Y-41954819D01*
X106047619Y-40954819D02*
X106666666Y-40954819D01*
X106666666Y-40954819D02*
X106333333Y-41335771D01*
X106333333Y-41335771D02*
X106476190Y-41335771D01*
X106476190Y-41335771D02*
X106571428Y-41383390D01*
X106571428Y-41383390D02*
X106619047Y-41431009D01*
X106619047Y-41431009D02*
X106666666Y-41526247D01*
X106666666Y-41526247D02*
X106666666Y-41764342D01*
X106666666Y-41764342D02*
X106619047Y-41859580D01*
X106619047Y-41859580D02*
X106571428Y-41907200D01*
X106571428Y-41907200D02*
X106476190Y-41954819D01*
X106476190Y-41954819D02*
X106190476Y-41954819D01*
X106190476Y-41954819D02*
X106095238Y-41907200D01*
X106095238Y-41907200D02*
X106047619Y-41859580D01*
X88103333Y-49094819D02*
X87770000Y-48618628D01*
X87531905Y-49094819D02*
X87531905Y-48094819D01*
X87531905Y-48094819D02*
X87912857Y-48094819D01*
X87912857Y-48094819D02*
X88008095Y-48142438D01*
X88008095Y-48142438D02*
X88055714Y-48190057D01*
X88055714Y-48190057D02*
X88103333Y-48285295D01*
X88103333Y-48285295D02*
X88103333Y-48428152D01*
X88103333Y-48428152D02*
X88055714Y-48523390D01*
X88055714Y-48523390D02*
X88008095Y-48571009D01*
X88008095Y-48571009D02*
X87912857Y-48618628D01*
X87912857Y-48618628D02*
X87531905Y-48618628D01*
X88960476Y-48428152D02*
X88960476Y-49094819D01*
X88722381Y-48047200D02*
X88484286Y-48761485D01*
X88484286Y-48761485D02*
X89103333Y-48761485D01*
X94508095Y-56094819D02*
X94508095Y-56904342D01*
X94508095Y-56904342D02*
X94555714Y-56999580D01*
X94555714Y-56999580D02*
X94603333Y-57047200D01*
X94603333Y-57047200D02*
X94698571Y-57094819D01*
X94698571Y-57094819D02*
X94889047Y-57094819D01*
X94889047Y-57094819D02*
X94984285Y-57047200D01*
X94984285Y-57047200D02*
X95031904Y-56999580D01*
X95031904Y-56999580D02*
X95079523Y-56904342D01*
X95079523Y-56904342D02*
X95079523Y-56094819D01*
X96079523Y-57094819D02*
X95508095Y-57094819D01*
X95793809Y-57094819D02*
X95793809Y-56094819D01*
X95793809Y-56094819D02*
X95698571Y-56237676D01*
X95698571Y-56237676D02*
X95603333Y-56332914D01*
X95603333Y-56332914D02*
X95508095Y-56380533D01*
X90333333Y-53954819D02*
X90000000Y-53478628D01*
X89761905Y-53954819D02*
X89761905Y-52954819D01*
X89761905Y-52954819D02*
X90142857Y-52954819D01*
X90142857Y-52954819D02*
X90238095Y-53002438D01*
X90238095Y-53002438D02*
X90285714Y-53050057D01*
X90285714Y-53050057D02*
X90333333Y-53145295D01*
X90333333Y-53145295D02*
X90333333Y-53288152D01*
X90333333Y-53288152D02*
X90285714Y-53383390D01*
X90285714Y-53383390D02*
X90238095Y-53431009D01*
X90238095Y-53431009D02*
X90142857Y-53478628D01*
X90142857Y-53478628D02*
X89761905Y-53478628D01*
X91238095Y-52954819D02*
X90761905Y-52954819D01*
X90761905Y-52954819D02*
X90714286Y-53431009D01*
X90714286Y-53431009D02*
X90761905Y-53383390D01*
X90761905Y-53383390D02*
X90857143Y-53335771D01*
X90857143Y-53335771D02*
X91095238Y-53335771D01*
X91095238Y-53335771D02*
X91190476Y-53383390D01*
X91190476Y-53383390D02*
X91238095Y-53431009D01*
X91238095Y-53431009D02*
X91285714Y-53526247D01*
X91285714Y-53526247D02*
X91285714Y-53764342D01*
X91285714Y-53764342D02*
X91238095Y-53859580D01*
X91238095Y-53859580D02*
X91190476Y-53907200D01*
X91190476Y-53907200D02*
X91095238Y-53954819D01*
X91095238Y-53954819D02*
X90857143Y-53954819D01*
X90857143Y-53954819D02*
X90761905Y-53907200D01*
X90761905Y-53907200D02*
X90714286Y-53859580D01*
X109370595Y-49594819D02*
X109370595Y-50404342D01*
X109370595Y-50404342D02*
X109418214Y-50499580D01*
X109418214Y-50499580D02*
X109465833Y-50547200D01*
X109465833Y-50547200D02*
X109561071Y-50594819D01*
X109561071Y-50594819D02*
X109751547Y-50594819D01*
X109751547Y-50594819D02*
X109846785Y-50547200D01*
X109846785Y-50547200D02*
X109894404Y-50499580D01*
X109894404Y-50499580D02*
X109942023Y-50404342D01*
X109942023Y-50404342D02*
X109942023Y-49594819D01*
X110322976Y-49594819D02*
X110942023Y-49594819D01*
X110942023Y-49594819D02*
X110608690Y-49975771D01*
X110608690Y-49975771D02*
X110751547Y-49975771D01*
X110751547Y-49975771D02*
X110846785Y-50023390D01*
X110846785Y-50023390D02*
X110894404Y-50071009D01*
X110894404Y-50071009D02*
X110942023Y-50166247D01*
X110942023Y-50166247D02*
X110942023Y-50404342D01*
X110942023Y-50404342D02*
X110894404Y-50499580D01*
X110894404Y-50499580D02*
X110846785Y-50547200D01*
X110846785Y-50547200D02*
X110751547Y-50594819D01*
X110751547Y-50594819D02*
X110465833Y-50594819D01*
X110465833Y-50594819D02*
X110370595Y-50547200D01*
X110370595Y-50547200D02*
X110322976Y-50499580D01*
X102103333Y-49094819D02*
X101770000Y-48618628D01*
X101531905Y-49094819D02*
X101531905Y-48094819D01*
X101531905Y-48094819D02*
X101912857Y-48094819D01*
X101912857Y-48094819D02*
X102008095Y-48142438D01*
X102008095Y-48142438D02*
X102055714Y-48190057D01*
X102055714Y-48190057D02*
X102103333Y-48285295D01*
X102103333Y-48285295D02*
X102103333Y-48428152D01*
X102103333Y-48428152D02*
X102055714Y-48523390D01*
X102055714Y-48523390D02*
X102008095Y-48571009D01*
X102008095Y-48571009D02*
X101912857Y-48618628D01*
X101912857Y-48618628D02*
X101531905Y-48618628D01*
X102436667Y-48094819D02*
X103055714Y-48094819D01*
X103055714Y-48094819D02*
X102722381Y-48475771D01*
X102722381Y-48475771D02*
X102865238Y-48475771D01*
X102865238Y-48475771D02*
X102960476Y-48523390D01*
X102960476Y-48523390D02*
X103008095Y-48571009D01*
X103008095Y-48571009D02*
X103055714Y-48666247D01*
X103055714Y-48666247D02*
X103055714Y-48904342D01*
X103055714Y-48904342D02*
X103008095Y-48999580D01*
X103008095Y-48999580D02*
X102960476Y-49047200D01*
X102960476Y-49047200D02*
X102865238Y-49094819D01*
X102865238Y-49094819D02*
X102579524Y-49094819D01*
X102579524Y-49094819D02*
X102484286Y-49047200D01*
X102484286Y-49047200D02*
X102436667Y-48999580D01*
X120857142Y-59954819D02*
X120523809Y-59478628D01*
X120285714Y-59954819D02*
X120285714Y-58954819D01*
X120285714Y-58954819D02*
X120666666Y-58954819D01*
X120666666Y-58954819D02*
X120761904Y-59002438D01*
X120761904Y-59002438D02*
X120809523Y-59050057D01*
X120809523Y-59050057D02*
X120857142Y-59145295D01*
X120857142Y-59145295D02*
X120857142Y-59288152D01*
X120857142Y-59288152D02*
X120809523Y-59383390D01*
X120809523Y-59383390D02*
X120761904Y-59431009D01*
X120761904Y-59431009D02*
X120666666Y-59478628D01*
X120666666Y-59478628D02*
X120285714Y-59478628D01*
X121809523Y-59954819D02*
X121238095Y-59954819D01*
X121523809Y-59954819D02*
X121523809Y-58954819D01*
X121523809Y-58954819D02*
X121428571Y-59097676D01*
X121428571Y-59097676D02*
X121333333Y-59192914D01*
X121333333Y-59192914D02*
X121238095Y-59240533D01*
X122190476Y-59050057D02*
X122238095Y-59002438D01*
X122238095Y-59002438D02*
X122333333Y-58954819D01*
X122333333Y-58954819D02*
X122571428Y-58954819D01*
X122571428Y-58954819D02*
X122666666Y-59002438D01*
X122666666Y-59002438D02*
X122714285Y-59050057D01*
X122714285Y-59050057D02*
X122761904Y-59145295D01*
X122761904Y-59145295D02*
X122761904Y-59240533D01*
X122761904Y-59240533D02*
X122714285Y-59383390D01*
X122714285Y-59383390D02*
X122142857Y-59954819D01*
X122142857Y-59954819D02*
X122761904Y-59954819D01*
X78436666Y-46234819D02*
X78436666Y-46949104D01*
X78436666Y-46949104D02*
X78389047Y-47091961D01*
X78389047Y-47091961D02*
X78293809Y-47187200D01*
X78293809Y-47187200D02*
X78150952Y-47234819D01*
X78150952Y-47234819D02*
X78055714Y-47234819D01*
X79436666Y-47234819D02*
X78865238Y-47234819D01*
X79150952Y-47234819D02*
X79150952Y-46234819D01*
X79150952Y-46234819D02*
X79055714Y-46377676D01*
X79055714Y-46377676D02*
X78960476Y-46472914D01*
X78960476Y-46472914D02*
X78865238Y-46520533D01*
X93841905Y-66714819D02*
X93841905Y-65714819D01*
X93841905Y-65714819D02*
X94080000Y-65714819D01*
X94080000Y-65714819D02*
X94222857Y-65762438D01*
X94222857Y-65762438D02*
X94318095Y-65857676D01*
X94318095Y-65857676D02*
X94365714Y-65952914D01*
X94365714Y-65952914D02*
X94413333Y-66143390D01*
X94413333Y-66143390D02*
X94413333Y-66286247D01*
X94413333Y-66286247D02*
X94365714Y-66476723D01*
X94365714Y-66476723D02*
X94318095Y-66571961D01*
X94318095Y-66571961D02*
X94222857Y-66667200D01*
X94222857Y-66667200D02*
X94080000Y-66714819D01*
X94080000Y-66714819D02*
X93841905Y-66714819D01*
X95365714Y-66714819D02*
X94794286Y-66714819D01*
X95080000Y-66714819D02*
X95080000Y-65714819D01*
X95080000Y-65714819D02*
X94984762Y-65857676D01*
X94984762Y-65857676D02*
X94889524Y-65952914D01*
X94889524Y-65952914D02*
X94794286Y-66000533D01*
X99818095Y-64634819D02*
X99818095Y-63634819D01*
X100389523Y-64634819D02*
X99960952Y-64063390D01*
X100389523Y-63634819D02*
X99818095Y-64206247D01*
X113357142Y-63454819D02*
X113023809Y-62978628D01*
X112785714Y-63454819D02*
X112785714Y-62454819D01*
X112785714Y-62454819D02*
X113166666Y-62454819D01*
X113166666Y-62454819D02*
X113261904Y-62502438D01*
X113261904Y-62502438D02*
X113309523Y-62550057D01*
X113309523Y-62550057D02*
X113357142Y-62645295D01*
X113357142Y-62645295D02*
X113357142Y-62788152D01*
X113357142Y-62788152D02*
X113309523Y-62883390D01*
X113309523Y-62883390D02*
X113261904Y-62931009D01*
X113261904Y-62931009D02*
X113166666Y-62978628D01*
X113166666Y-62978628D02*
X112785714Y-62978628D01*
X114309523Y-63454819D02*
X113738095Y-63454819D01*
X114023809Y-63454819D02*
X114023809Y-62454819D01*
X114023809Y-62454819D02*
X113928571Y-62597676D01*
X113928571Y-62597676D02*
X113833333Y-62692914D01*
X113833333Y-62692914D02*
X113738095Y-62740533D01*
X114928571Y-62454819D02*
X115023809Y-62454819D01*
X115023809Y-62454819D02*
X115119047Y-62502438D01*
X115119047Y-62502438D02*
X115166666Y-62550057D01*
X115166666Y-62550057D02*
X115214285Y-62645295D01*
X115214285Y-62645295D02*
X115261904Y-62835771D01*
X115261904Y-62835771D02*
X115261904Y-63073866D01*
X115261904Y-63073866D02*
X115214285Y-63264342D01*
X115214285Y-63264342D02*
X115166666Y-63359580D01*
X115166666Y-63359580D02*
X115119047Y-63407200D01*
X115119047Y-63407200D02*
X115023809Y-63454819D01*
X115023809Y-63454819D02*
X114928571Y-63454819D01*
X114928571Y-63454819D02*
X114833333Y-63407200D01*
X114833333Y-63407200D02*
X114785714Y-63359580D01*
X114785714Y-63359580D02*
X114738095Y-63264342D01*
X114738095Y-63264342D02*
X114690476Y-63073866D01*
X114690476Y-63073866D02*
X114690476Y-62835771D01*
X114690476Y-62835771D02*
X114738095Y-62645295D01*
X114738095Y-62645295D02*
X114785714Y-62550057D01*
X114785714Y-62550057D02*
X114833333Y-62502438D01*
X114833333Y-62502438D02*
X114928571Y-62454819D01*
X101603333Y-59094819D02*
X101270000Y-58618628D01*
X101031905Y-59094819D02*
X101031905Y-58094819D01*
X101031905Y-58094819D02*
X101412857Y-58094819D01*
X101412857Y-58094819D02*
X101508095Y-58142438D01*
X101508095Y-58142438D02*
X101555714Y-58190057D01*
X101555714Y-58190057D02*
X101603333Y-58285295D01*
X101603333Y-58285295D02*
X101603333Y-58428152D01*
X101603333Y-58428152D02*
X101555714Y-58523390D01*
X101555714Y-58523390D02*
X101508095Y-58571009D01*
X101508095Y-58571009D02*
X101412857Y-58618628D01*
X101412857Y-58618628D02*
X101031905Y-58618628D01*
X101984286Y-58190057D02*
X102031905Y-58142438D01*
X102031905Y-58142438D02*
X102127143Y-58094819D01*
X102127143Y-58094819D02*
X102365238Y-58094819D01*
X102365238Y-58094819D02*
X102460476Y-58142438D01*
X102460476Y-58142438D02*
X102508095Y-58190057D01*
X102508095Y-58190057D02*
X102555714Y-58285295D01*
X102555714Y-58285295D02*
X102555714Y-58380533D01*
X102555714Y-58380533D02*
X102508095Y-58523390D01*
X102508095Y-58523390D02*
X101936667Y-59094819D01*
X101936667Y-59094819D02*
X102555714Y-59094819D01*
X120857142Y-48954819D02*
X120523809Y-48478628D01*
X120285714Y-48954819D02*
X120285714Y-47954819D01*
X120285714Y-47954819D02*
X120666666Y-47954819D01*
X120666666Y-47954819D02*
X120761904Y-48002438D01*
X120761904Y-48002438D02*
X120809523Y-48050057D01*
X120809523Y-48050057D02*
X120857142Y-48145295D01*
X120857142Y-48145295D02*
X120857142Y-48288152D01*
X120857142Y-48288152D02*
X120809523Y-48383390D01*
X120809523Y-48383390D02*
X120761904Y-48431009D01*
X120761904Y-48431009D02*
X120666666Y-48478628D01*
X120666666Y-48478628D02*
X120285714Y-48478628D01*
X121809523Y-48954819D02*
X121238095Y-48954819D01*
X121523809Y-48954819D02*
X121523809Y-47954819D01*
X121523809Y-47954819D02*
X121428571Y-48097676D01*
X121428571Y-48097676D02*
X121333333Y-48192914D01*
X121333333Y-48192914D02*
X121238095Y-48240533D01*
X122761904Y-48954819D02*
X122190476Y-48954819D01*
X122476190Y-48954819D02*
X122476190Y-47954819D01*
X122476190Y-47954819D02*
X122380952Y-48097676D01*
X122380952Y-48097676D02*
X122285714Y-48192914D01*
X122285714Y-48192914D02*
X122190476Y-48240533D01*
D12*
X112120000Y-45220000D02*
X115960000Y-45220000D01*
X112120000Y-47060000D02*
X115960000Y-47060000D01*
X83170000Y-50895000D02*
X84500000Y-50895000D01*
X83170000Y-52225000D02*
X83170000Y-50895000D01*
X83170000Y-53495000D02*
X83170000Y-56095000D01*
X83170000Y-53495000D02*
X85830000Y-53495000D01*
X83170000Y-56095000D02*
X85830000Y-56095000D01*
X85830000Y-53495000D02*
X85830000Y-56095000D01*
X103890000Y-60220000D02*
X107730000Y-60220000D01*
X103890000Y-62060000D02*
X107730000Y-62060000D01*
X91810000Y-43140000D02*
X92460000Y-43140000D01*
X92460000Y-42020000D02*
X92460000Y-44260000D01*
X92460000Y-44260000D02*
X96700000Y-44260000D01*
X93060000Y-42020000D02*
X93060000Y-44260000D01*
X93180000Y-42020000D02*
X93180000Y-44260000D01*
X93300000Y-42020000D02*
X93300000Y-44260000D01*
X96700000Y-42020000D02*
X92460000Y-42020000D01*
X96700000Y-44260000D02*
X96700000Y-42020000D01*
X97350000Y-43140000D02*
X96700000Y-43140000D01*
X93470000Y-49850000D02*
X97070000Y-49850000D01*
X93431522Y-49838478D02*
G75*
G02*
X95270000Y-45399999I1838478J1838478D01*
G01*
X95270000Y-45400000D02*
G75*
G02*
X97108478Y-49838478I0J-2600000D01*
G01*
X102350000Y-51760000D02*
X102350000Y-55600000D01*
X104190000Y-51760000D02*
X104190000Y-55600000D01*
X122170000Y-50895000D02*
X123500000Y-50895000D01*
X122170000Y-52225000D02*
X122170000Y-50895000D01*
X122170000Y-53495000D02*
X122170000Y-56095000D01*
X122170000Y-53495000D02*
X124830000Y-53495000D01*
X122170000Y-56095000D02*
X124830000Y-56095000D01*
X124830000Y-53495000D02*
X124830000Y-56095000D01*
X103890000Y-45220000D02*
X107730000Y-45220000D01*
X103890000Y-47060000D02*
X107730000Y-47060000D01*
X89850000Y-56760000D02*
X89850000Y-60600000D01*
X91690000Y-56760000D02*
X91690000Y-60600000D01*
X107895000Y-42830000D02*
X107895000Y-41500000D01*
X109225000Y-42830000D02*
X107895000Y-42830000D01*
X110495000Y-40170000D02*
X113095000Y-40170000D01*
X110495000Y-42830000D02*
X110495000Y-40170000D01*
X110495000Y-42830000D02*
X113095000Y-42830000D01*
X113095000Y-42830000D02*
X113095000Y-40170000D01*
X89850000Y-50560000D02*
X89850000Y-46720000D01*
X91690000Y-50560000D02*
X91690000Y-46720000D01*
X97070000Y-57430000D02*
X93470000Y-57430000D01*
X95270000Y-61880000D02*
G75*
G02*
X93431522Y-57441522I0J2600000D01*
G01*
X97108478Y-57441522D02*
G75*
G02*
X95270000Y-61880001I-1838478J-1838478D01*
G01*
X96920000Y-52781100D02*
X93080000Y-52781100D01*
X96920000Y-54621100D02*
X93080000Y-54621100D01*
X110132500Y-50980000D02*
X107932500Y-50980000D01*
X110132500Y-50980000D02*
X112332500Y-50980000D01*
X110132500Y-56200000D02*
X107932500Y-56200000D01*
X110132500Y-56200000D02*
X112332500Y-56200000D01*
X107232500Y-51180000D02*
X106992500Y-50850000D01*
X107472500Y-50850000D01*
X107232500Y-51180000D01*
G36*
X107232500Y-51180000D02*
G01*
X106992500Y-50850000D01*
X107472500Y-50850000D01*
X107232500Y-51180000D01*
G37*
X98850000Y-50600000D02*
X98850000Y-46760000D01*
X100690000Y-50600000D02*
X100690000Y-46760000D01*
X118080000Y-59420000D02*
X118080000Y-55580000D01*
X119920000Y-59420000D02*
X119920000Y-55580000D01*
X77440000Y-48370000D02*
X78770000Y-48370000D01*
X77440000Y-49700000D02*
X77440000Y-48370000D01*
X77440000Y-50970000D02*
X77440000Y-58650000D01*
X77440000Y-50970000D02*
X80100000Y-50970000D01*
X77440000Y-58650000D02*
X80100000Y-58650000D01*
X80100000Y-50970000D02*
X80100000Y-58650000D01*
X91810000Y-64140000D02*
X92460000Y-64140000D01*
X92460000Y-63020000D02*
X92460000Y-65260000D01*
X92460000Y-65260000D02*
X96700000Y-65260000D01*
X95860000Y-65260000D02*
X95860000Y-63020000D01*
X95980000Y-65260000D02*
X95980000Y-63020000D01*
X96100000Y-65260000D02*
X96100000Y-63020000D01*
X96700000Y-63020000D02*
X92460000Y-63020000D01*
X96700000Y-65260000D02*
X96700000Y-63020000D01*
X97350000Y-64140000D02*
X96700000Y-64140000D01*
X112080000Y-60220000D02*
X115920000Y-60220000D01*
X112080000Y-62060000D02*
X115920000Y-62060000D01*
X98850000Y-56720000D02*
X98850000Y-60560000D01*
X100690000Y-56720000D02*
X100690000Y-60560000D01*
X118080000Y-48080000D02*
X118080000Y-51920000D01*
X119920000Y-48080000D02*
X119920000Y-51920000D01*
%LPC*%
D13*
X111500000Y-46140000D03*
D14*
X116580000Y-46140000D03*
D15*
X80000000Y-65500000D03*
D16*
X80000000Y-65500000D03*
D15*
X80000000Y-42500000D03*
D16*
X80000000Y-42500000D03*
D17*
X84500000Y-52225000D03*
D18*
X84500000Y-54765000D03*
D13*
X103270000Y-61140000D03*
D14*
X108350000Y-61140000D03*
D19*
X90770000Y-43140000D03*
D20*
X98390000Y-43140000D03*
D21*
X94000000Y-48000000D03*
D22*
X95270000Y-48000000D03*
X96540000Y-48000000D03*
D15*
X123000000Y-65500000D03*
D16*
X123000000Y-65500000D03*
D13*
X103270000Y-51140000D03*
D14*
X103270000Y-56220000D03*
D17*
X123500000Y-52225000D03*
D18*
X123500000Y-54765000D03*
D13*
X103270000Y-46140000D03*
D14*
X108350000Y-46140000D03*
D13*
X90770000Y-56140000D03*
D14*
X90770000Y-61220000D03*
D17*
X109225000Y-41500000D03*
D18*
X111765000Y-41500000D03*
D13*
X90770000Y-51180000D03*
D14*
X90770000Y-46100000D03*
D21*
X96540000Y-59280000D03*
D22*
X95270000Y-59280000D03*
X94000000Y-59280000D03*
D13*
X97540000Y-53701100D03*
D14*
X92460000Y-53701100D03*
D23*
X107270000Y-51640000D03*
X107270000Y-52290000D03*
X107270000Y-52940000D03*
X107270000Y-53590000D03*
X107270000Y-54240000D03*
X107270000Y-54890000D03*
X107270000Y-55540000D03*
X112995000Y-55540000D03*
X112995000Y-54890000D03*
X112995000Y-54240000D03*
X112995000Y-53590000D03*
X112995000Y-52940000D03*
X112995000Y-52290000D03*
X112995000Y-51640000D03*
D13*
X99770000Y-51220000D03*
D14*
X99770000Y-46140000D03*
D13*
X119000000Y-60040000D03*
D14*
X119000000Y-54960000D03*
D17*
X78770000Y-49700000D03*
D18*
X78770000Y-52240000D03*
X78770000Y-54780000D03*
X78770000Y-57320000D03*
D19*
X98390000Y-64140000D03*
D20*
X90770000Y-64140000D03*
D13*
X111460000Y-61140000D03*
D14*
X116540000Y-61140000D03*
D13*
X99770000Y-56100000D03*
D14*
X99770000Y-61180000D03*
D15*
X123000000Y-42500000D03*
D16*
X123000000Y-42500000D03*
D13*
X119000000Y-47460000D03*
D14*
X119000000Y-52540000D03*
%LPD*%
M02*
