M48
; DRILL file {KiCad 9.0.0} date 2025-04-05T17:15:21-0400
; FORMAT={-:-/ absolute / metric / decimal}
; #@! TF.CreationDate,2025-04-05T17:15:21-04:00
; #@! TF.GenerationSoftware,Kicad,Pcbnew,9.0.0
; #@! TF.FileFunction,Plated,1,2,PTH
FMAT,2
METRIC
; #@! TA.AperFunction,Plated,PTH,ViaDrill
T1C0.300
; #@! TA.AperFunction,Plated,PTH,ComponentDrill
T2C0.700
; #@! TA.AperFunction,Plated,PTH,ComponentDrill
T3C0.750
; #@! TA.AperFunction,Plated,PTH,ComponentDrill
T4C0.800
; #@! TA.AperFunction,Plated,PTH,ComponentDrill
T5C1.000
; #@! TA.AperFunction,Plated,PTH,ComponentDrill
T6C3.200
%
G90
G05
T1
X103.0Y-52.5
X103.0Y-54.5
X109.174Y-53.594
X111.074Y-53.594
T2
X90.77Y-46.1
X90.77Y-51.18
X90.77Y-56.14
X90.77Y-61.22
X92.46Y-53.701
X97.54Y-53.701
X99.77Y-46.14
X99.77Y-51.22
X99.77Y-56.1
X99.77Y-61.18
X103.27Y-46.14
X103.27Y-51.14
X103.27Y-56.22
X103.27Y-61.14
X108.35Y-46.14
X108.35Y-61.14
X111.46Y-61.14
X111.5Y-46.14
X116.54Y-61.14
X116.58Y-46.14
X119.0Y-47.46
X119.0Y-52.54
X119.0Y-54.96
X119.0Y-60.04
T3
X94.0Y-48.0
X94.0Y-59.28
X95.27Y-48.0
X95.27Y-59.28
X96.54Y-48.0
X96.54Y-59.28
T4
X90.77Y-43.14
X90.77Y-64.14
X98.39Y-43.14
X98.39Y-64.14
T5
X78.77Y-49.7
X78.77Y-52.24
X78.77Y-54.78
X78.77Y-57.32
X84.5Y-52.225
X84.5Y-54.765
X109.225Y-41.5
X111.765Y-41.5
X123.5Y-52.225
X123.5Y-54.765
T6
X80.0Y-42.5
X80.0Y-65.5
X123.0Y-42.5
X123.0Y-65.5
M30
