G04 #@! TF.GenerationSoftware,KiCad,Pcbnew,9.0.0*
G04 #@! TF.CreationDate,2025-04-05T17:14:40-04:00*
G04 #@! TF.ProjectId,GeoSence_KiCad_singal_module,47656f53-656e-4636-955f-4b694361645f,rev?*
G04 #@! TF.SameCoordinates,Original*
G04 #@! TF.FileFunction,Soldermask,Top*
G04 #@! TF.FilePolarity,Negative*
%FSLAX46Y46*%
G04 Gerber Fmt 4.6, Leading zero omitted, Abs format (unit mm)*
G04 Created by KiCad (PCBNEW 9.0.0) date 2025-04-05 17:14:40*
%MOMM*%
%LPD*%
G01*
G04 APERTURE LIST*
G04 Aperture macros list*
%AMRoundRect*
0 Rectangle with rounded corners*
0 $1 Rounding radius*
0 $2 $3 $4 $5 $6 $7 $8 $9 X,Y pos of 4 corners*
0 Add a 4 corners polygon primitive as box body*
4,1,4,$2,$3,$4,$5,$6,$7,$8,$9,$2,$3,0*
0 Add four circle primitives for the rounded corners*
1,1,$1+$1,$2,$3*
1,1,$1+$1,$4,$5*
1,1,$1+$1,$6,$7*
1,1,$1+$1,$8,$9*
0 Add four rect primitives between the rounded corners*
20,1,$1+$1,$2,$3,$4,$5,0*
20,1,$1+$1,$4,$5,$6,$7,0*
20,1,$1+$1,$6,$7,$8,$9,0*
20,1,$1+$1,$8,$9,$2,$3,0*%
G04 Aperture macros list end*
%ADD10C,1.400000*%
%ADD11O,1.400000X1.400000*%
%ADD12C,3.600000*%
%ADD13C,5.600000*%
%ADD14R,1.700000X1.700000*%
%ADD15O,1.700000X1.700000*%
%ADD16R,1.600000X1.600000*%
%ADD17O,1.600000X1.600000*%
%ADD18R,1.050000X1.500000*%
%ADD19O,1.050000X1.500000*%
%ADD20RoundRect,0.100000X-0.637500X-0.100000X0.637500X-0.100000X0.637500X0.100000X-0.637500X0.100000X0*%
G04 APERTURE END LIST*
D10*
X111500000Y-46140000D03*
D11*
X116580000Y-46140000D03*
D12*
X80000000Y-65500000D03*
D13*
X80000000Y-65500000D03*
D12*
X80000000Y-42500000D03*
D13*
X80000000Y-42500000D03*
D14*
X84500000Y-52225000D03*
D15*
X84500000Y-54765000D03*
D10*
X103270000Y-61140000D03*
D11*
X108350000Y-61140000D03*
D16*
X90770000Y-43140000D03*
D17*
X98390000Y-43140000D03*
D18*
X94000000Y-48000000D03*
D19*
X95270000Y-48000000D03*
X96540000Y-48000000D03*
D12*
X123000000Y-65500000D03*
D13*
X123000000Y-65500000D03*
D10*
X103270000Y-51140000D03*
D11*
X103270000Y-56220000D03*
D14*
X123500000Y-52225000D03*
D15*
X123500000Y-54765000D03*
D10*
X103270000Y-46140000D03*
D11*
X108350000Y-46140000D03*
D10*
X90770000Y-56140000D03*
D11*
X90770000Y-61220000D03*
D14*
X109225000Y-41500000D03*
D15*
X111765000Y-41500000D03*
D10*
X90770000Y-51180000D03*
D11*
X90770000Y-46100000D03*
D18*
X96540000Y-59280000D03*
D19*
X95270000Y-59280000D03*
X94000000Y-59280000D03*
D10*
X97540000Y-53701100D03*
D11*
X92460000Y-53701100D03*
D20*
X107270000Y-51640000D03*
X107270000Y-52290000D03*
X107270000Y-52940000D03*
X107270000Y-53590000D03*
X107270000Y-54240000D03*
X107270000Y-54890000D03*
X107270000Y-55540000D03*
X112995000Y-55540000D03*
X112995000Y-54890000D03*
X112995000Y-54240000D03*
X112995000Y-53590000D03*
X112995000Y-52940000D03*
X112995000Y-52290000D03*
X112995000Y-51640000D03*
D10*
X99770000Y-51220000D03*
D11*
X99770000Y-46140000D03*
D10*
X119000000Y-60040000D03*
D11*
X119000000Y-54960000D03*
D14*
X78770000Y-49700000D03*
D15*
X78770000Y-52240000D03*
X78770000Y-54780000D03*
X78770000Y-57320000D03*
D16*
X98390000Y-64140000D03*
D17*
X90770000Y-64140000D03*
D10*
X111460000Y-61140000D03*
D11*
X116540000Y-61140000D03*
D10*
X99770000Y-56100000D03*
D11*
X99770000Y-61180000D03*
D12*
X123000000Y-42500000D03*
D13*
X123000000Y-42500000D03*
D10*
X119000000Y-47460000D03*
D11*
X119000000Y-52540000D03*
M02*
